HIERARCHY
ROOT Hips
{
  OFFSET 5.84602e-005 68.8428 3.50346
  CHANNELS 6 Xposition Yposition Zposition Zrotation Xrotation Yrotation
  JOINT Spine
  {
    OFFSET 0 8.597 -4.6522
    CHANNELS 3 Zrotation Xrotation Yrotation
    JOINT Spine1
    {
      OFFSET 0 7.8454 0.4098
      CHANNELS 3 Zrotation Xrotation Yrotation
      JOINT Spine2
      {
        OFFSET 0 9.7078 -2.1609
        CHANNELS 3 Zrotation Xrotation Yrotation
        JOINT Neck
        {
          OFFSET 0 21.8761 -0.4549
          CHANNELS 3 Zrotation Xrotation Yrotation
          JOINT Head
          {
            OFFSET 0 12.3537 3.3602
            CHANNELS 3 Zrotation Xrotation Yrotation
            End Site
            {
              OFFSET 0.0001 18.9506 0.5657
            }
          }
        }
        JOINT LeftShoulder
        {
          OFFSET 2.2086 21.1115 7.2329
          CHANNELS 3 Zrotation Xrotation Yrotation
          JOINT LeftArm
          {
            OFFSET 13.1193 3.0282 -4.8998
            CHANNELS 3 Zrotation Xrotation Yrotation
            JOINT LeftForeArm
            {
              OFFSET 27.4081 -0.0973053 -0.2375
              CHANNELS 3 Zrotation Xrotation Yrotation
              JOINT LeftHand
              {
                OFFSET 22.8641 0.0662994 -0.1369
                CHANNELS 3 Zrotation Xrotation Yrotation
                JOINT LeftHandIndex1
                {
                  OFFSET 8.8614 0.775009 2.4612
                  CHANNELS 3 Zrotation Xrotation Yrotation
                  JOINT LeftHandIndex2
                  {
                    OFFSET 3.3146 -0.808304 0.5841
                    CHANNELS 3 Zrotation Xrotation Yrotation
                    JOINT LeftHandIndex3
                    {
                      OFFSET 2.2628 -0.552002 0.3989
                      CHANNELS 3 Zrotation Xrotation Yrotation
                      End Site
                      {
                        OFFSET 1.6102 -0.4807 0.2612
                      }
                    }
                  }
                }
                JOINT LeftHandMiddle1
                {
                  OFFSET 8.9937 0.895004 0.2143
                  CHANNELS 3 Zrotation Xrotation Yrotation
                  JOINT LeftHandMiddle2
                  {
                    OFFSET 4.0984 0.0113983 -0.0242
                    CHANNELS 3 Zrotation Xrotation Yrotation
                    JOINT LeftHandMiddle3
                    {
                      OFFSET 2.2716 0.00689697 -0.0138001
                      CHANNELS 3 Zrotation Xrotation Yrotation
                      End Site
                      {
                        OFFSET 2.0404 -0.1441 0.0027
                      }
                    }
                  }
                }
                JOINT LeftHandRing1
                {
                  OFFSET 8.5234 0.597198 -2.0164
                  CHANNELS 3 Zrotation Xrotation Yrotation
                  JOINT LeftHandRing2
                  {
                    OFFSET 3.7188 -0.188293 -0.2328
                    CHANNELS 3 Zrotation Xrotation Yrotation
                    JOINT LeftHandRing3
                    {
                      OFFSET 2.1191 -0.106598 -0.1332
                      CHANNELS 3 Zrotation Xrotation Yrotation
                      End Site
                      {
                        OFFSET 1.8737 -0.2304 -0.0886
                      }
                    }
                  }
                }
                JOINT LeftHandPinky1
                {
                  OFFSET 7.9094 -0.601089 -3.4825
                  CHANNELS 3 Zrotation Xrotation Yrotation
                  JOINT LeftHandPinky2
                  {
                    OFFSET 2.2874 -0.477005 -0.6314
                    CHANNELS 3 Zrotation Xrotation Yrotation
                    JOINT LeftHandPinky3
                    {
                      OFFSET 1.6774 -0.349396 -0.4633
                      CHANNELS 3 Zrotation Xrotation Yrotation
                      End Site
                      {
                        OFFSET 1.4888 -0.4091 -0.3416
                      }
                    }
                  }
                }
                JOINT LeftHandThumb1
                {
                  OFFSET 1.833 -1.3875 1.3896
                  CHANNELS 3 Zrotation Xrotation Yrotation
                  JOINT LeftHandThumb2
                  {
                    OFFSET 3.4129 -1.121 2.5732
                    CHANNELS 3 Zrotation Xrotation Yrotation
                    JOINT LeftHandThumb3
                    {
                      OFFSET 2.2474 -0.804199 1.6192
                      CHANNELS 3 Zrotation Xrotation Yrotation
                      End Site
                      {
                        OFFSET 1.6527 -0.5689 1.1317
                      }
                    }
                  }
                }
              }
            }
          }
        }
        JOINT RightShoulder
        {
          OFFSET -2.2086 21.1115 7.2329
          CHANNELS 3 Zrotation Xrotation Yrotation
          JOINT RightArm
          {
            OFFSET -13.1216 3.0287 -4.9007
            CHANNELS 3 Zrotation Xrotation Yrotation
            JOINT RightForeArm
            {
              OFFSET -27.4081 -0.0973053 -0.2375
              CHANNELS 3 Zrotation Xrotation Yrotation
              JOINT RightHand
              {
                OFFSET -22.8641 0.0664063 -0.1369
                CHANNELS 3 Zrotation Xrotation Yrotation
                JOINT RightHandIndex1
                {
                  OFFSET -8.8614 0.774994 2.4612
                  CHANNELS 3 Zrotation Xrotation Yrotation
                  JOINT RightHandIndex2
                  {
                    OFFSET -3.3146 -0.808304 0.5841
                    CHANNELS 3 Zrotation Xrotation Yrotation
                    JOINT RightHandIndex3
                    {
                      OFFSET -2.2628 -0.552002 0.3989
                      CHANNELS 3 Zrotation Xrotation Yrotation
                      End Site
                      {
                        OFFSET -1.6102 -0.4807 0.2612
                      }
                    }
                  }
                }
                JOINT RightHandMiddle1
                {
                  OFFSET -8.9937 0.894989 0.2143
                  CHANNELS 3 Zrotation Xrotation Yrotation
                  JOINT RightHandMiddle2
                  {
                    OFFSET -4.0984 0.0113983 -0.0242
                    CHANNELS 3 Zrotation Xrotation Yrotation
                    JOINT RightHandMiddle3
                    {
                      OFFSET -2.2716 0.00691223 -0.0138001
                      CHANNELS 3 Zrotation Xrotation Yrotation
                      End Site
                      {
                        OFFSET -2.0404 -0.1441 0.0027
                      }
                    }
                  }
                }
                JOINT RightHandRing1
                {
                  OFFSET -8.5234 0.597198 -2.0164
                  CHANNELS 3 Zrotation Xrotation Yrotation
                  JOINT RightHandRing2
                  {
                    OFFSET -3.7188 -0.188309 -0.2328
                    CHANNELS 3 Zrotation Xrotation Yrotation
                    JOINT RightHandRing3
                    {
                      OFFSET -2.1191 -0.106598 -0.1332
                      CHANNELS 3 Zrotation Xrotation Yrotation
                      End Site
                      {
                        OFFSET -1.8737 -0.2304 -0.0886
                      }
                    }
                  }
                }
                JOINT RightHandPinky1
                {
                  OFFSET -7.9094 -0.601105 -3.4825
                  CHANNELS 3 Zrotation Xrotation Yrotation
                  JOINT RightHandPinky2
                  {
                    OFFSET -2.2874 -0.477005 -0.6314
                    CHANNELS 3 Zrotation Xrotation Yrotation
                    JOINT RightHandPinky3
                    {
                      OFFSET -1.6774 -0.349396 -0.4633
                      CHANNELS 3 Zrotation Xrotation Yrotation
                      End Site
                      {
                        OFFSET -1.4888 -0.4091 -0.3416
                      }
                    }
                  }
                }
                JOINT RightHandThumb1
                {
                  OFFSET -1.833 -1.38751 1.3896
                  CHANNELS 3 Zrotation Xrotation Yrotation
                  JOINT RightHandThumb2
                  {
                    OFFSET -3.41299 -1.12099 2.5732
                    CHANNELS 3 Zrotation Xrotation Yrotation
                    JOINT RightHandThumb3
                    {
                      OFFSET -2.24741 -0.804108 1.6192
                      CHANNELS 3 Zrotation Xrotation Yrotation
                      End Site
                      {
                        OFFSET -1.6527 -0.5689 1.1317
                      }
                    }
                  }
                }
              }
            }
          }
        }
      }
    }
  }
  JOINT RightUpLeg
  {
    OFFSET -9.1966 3.8861 -0.7581
    CHANNELS 3 Zrotation Xrotation Yrotation
    JOINT RightLeg
    {
      OFFSET -0.7359 -41.0265 0
      CHANNELS 3 Zrotation Xrotation Yrotation
      JOINT RightFoot
      {
        OFFSET 0 -40.2855 0
        CHANNELS 3 Zrotation Xrotation Yrotation
        JOINT RightToeBase
        {
          OFFSET 0 -5.6122 11.7359
          CHANNELS 3 Zrotation Xrotation Yrotation
          End Site
          {
            OFFSET 0 0 7.8731
          }
        }
      }
    }
  }
  JOINT LeftUpLeg
  {
    OFFSET 9.1965 3.8864 -0.7581
    CHANNELS 3 Zrotation Xrotation Yrotation
    JOINT LeftLeg
    {
      OFFSET 0.7359 -41.0268 0
      CHANNELS 3 Zrotation Xrotation Yrotation
      JOINT LeftFoot
      {
        OFFSET 0 -40.2855 0
        CHANNELS 3 Zrotation Xrotation Yrotation
        JOINT LeftToeBase
        {
          OFFSET 0 -5.6122 11.7359
          CHANNELS 3 Zrotation Xrotation Yrotation
          End Site
          {
            OFFSET 0 0 7.8731
          }
        }
      }
    }
  }
}
MOTION
Frames:	5
Frame Time:	0.0333333
-0.0603137 7.47108 50.6635 -180 -44 -180 0.622109 10.1252 0.118457 1.25268 20.251 0.126175 1.25268 20.251 0.126175 -1.29122e-005 17.9984 1.09036e-005 0.065335 -7.72342 -26.5448 -15.579 10.9735 -42.9397 -44.9637 2.22101 3.92905 -48.6089 -47.2358 -91.1319 -57.0059 13.5745 -0.0345652 -1.86581e-008 -7.11881e-008 -2.00343e-007 2.79872e-008 1.06782e-007 3.00514e-007 -1.86581e-008 -7.11881e-008 -2.00343e-007 -1.86581e-008 -7.11881e-008 -2.00343e-007 -0.0146037 -8.78777e-005 -1.95266e-007 -1.8658e-008 -7.11626e-008 -2.00352e-007 -1.86581e-008 -7.11881e-008 -2.00343e-007 -0.0187636 -0.00117679 5.85899e-005 -1.87544e-006 3.36388e-007 -1.16558e-007 -1.86581e-008 -7.11881e-008 -2.00343e-007 -0.0123142 -0.00326089 0.000678902 -1.8664e-008 -7.11664e-008 -2.0035e-007 -1.86581e-008 -7.11881e-008 -2.00343e-007 2.79872e-008 1.06782e-007 3.00514e-007 -1.86581e-008 -7.11881e-008 -2.00343e-007 15.6194 11.3553 42.5369 44.9146 2.23219 -3.9574 48.5994 -47.3174 91.0533 63.4488 18.798 -2.29914 -2.18663e-015 1.59028e-015 3.97569e-016 -2.28602e-015 0 -0 8.94531e-016 0 -0 -2.18663e-015 1.59028e-015 3.97569e-016 0.0149932 -9.15116e-005 4.05856e-008 -3.97569e-016 0 -0 -2.18663e-015 1.59028e-015 3.97569e-016 0.019041 -0.00119325 -5.95694e-005 2.23633e-015 1.59028e-015 -0 -2.18663e-015 1.59028e-015 3.97569e-016 0.0122868 -0.0032532 -0.000675599 -9.44227e-016 0 3.97569e-016 -2.18663e-015 1.59028e-015 3.97569e-016 -2.28602e-015 0 -0 8.94531e-016 0 -0 -146.38 -80.1736 -152.103 2.08238 43.8305 -2.72 -10.3544 9.00789 3.39379 -2.60905e-016 -1.98785e-016 -1.59028e-015 124.409 -74.9421 137.656 3.41107 31.2017 -0.780099 9.23185 -1.58593 -10.8066 1.48563e-006 -2.60336e-007 -1.1617e-006 
-0.0612893 7.47025 50.6623 -180 -44 -180 0.623548 10.2117 0.115924 1.25645 20.4241 0.119697 1.25646 20.424 0.119698 -1.70493e-005 17.9987 1.06915e-005 0.108511 -7.53652 -26.2396 -15.3355 10.5882 -42.9738 -45.2148 2.2212 3.92121 -48.6049 -47.0801 -91.1678 -56.8029 13.8188 -0.175192 -9.21445e-009 -3.56972e-008 -1.00146e-007 -9.2145e-009 -3.56971e-008 -1.00146e-007 -9.21447e-009 -3.56971e-008 -1.00146e-007 -9.21445e-009 -3.56972e-008 -1.00146e-007 -0.014582 -8.81605e-005 -9.65794e-007 -9.21444e-009 -3.56844e-008 -1.00151e-007 -9.21445e-009 -3.56972e-008 -1.00146e-007 -0.0187396 -0.00117502 5.80034e-005 -9.21537e-009 -3.56808e-008 -1.00152e-007 -9.21445e-009 -3.56972e-008 -1.00146e-007 -0.0122804 -0.00325014 0.000676391 -9.2174e-009 -3.56863e-008 -1.0015e-007 -9.21445e-009 -3.56972e-008 -1.00146e-007 -9.2145e-009 -3.56971e-008 -1.00146e-007 -9.21447e-009 -3.56971e-008 -1.00146e-007 15.3727 10.9574 42.5861 45.1673 2.23188 -3.9487 48.5959 -47.159 91.0919 63.0136 18.8752 -2.06989 -3.8266e-015 0 7.95139e-016 -4.02539e-015 -1.59028e-015 3.97569e-016 -4.02539e-015 0 -0 -3.8266e-015 0 7.95139e-016 0.014956 -9.11691e-005 -3.54052e-007 -7.05686e-015 -3.18055e-015 -7.95139e-016 -3.8266e-015 0 7.95139e-016 0.0189859 -0.0011901 -5.99138e-005 8.94531e-016 0 -0 -3.8266e-015 0 7.95139e-016 0.0122971 -0.00325506 -0.000676998 -9.93923e-017 0 1.59028e-015 -3.8266e-015 0 7.95139e-016 -4.02539e-015 -1.59028e-015 3.97569e-016 -4.02539e-015 0 -0 -145.705 -80.1502 -151.442 2.09097 44.1335 -2.74524 -10.3551 9.00526 3.3936 -8.53616e-007 1.38978e-009 5.80416e-009 123.944 -74.7752 137.212 3.4098 31.1892 -0.779576 9.23389 -1.57873 -10.8072 -1.03404e-006 -3.12841e-007 -3.93912e-007 
-0.0622706 7.46943 50.661 -180 -44 -180 0.624989 10.2983 0.113383 1.26025 20.5971 0.113192 1.26025 20.5971 0.113193 -1.7817e-005 17.9984 1.07107e-005 0.150684 -7.34925 -25.9344 -15.0926 10.2026 -43.0063 -45.4659 2.22141 3.91335 -48.6008 -46.9244 -91.2035 -56.5991 14.0627 -0.316884 -3.22071e-006 7.34217e-007 -9.53232e-008 -9.09972e-009 -3.57991e-008 -1.00121e-007 -3.18431e-006 8.77413e-007 3.05161e-007 -3.22071e-006 7.34217e-007 -9.53232e-008 -0.0146188 -8.92742e-005 -7.644e-008 -3.18447e-006 8.77373e-007 3.05275e-007 -3.22071e-006 7.34217e-007 -9.53232e-008 -0.0187378 -0.00117507 5.7695e-005 -5.01884e-006 1.28827e-006 2.91339e-007 -3.22071e-006 7.34217e-007 -9.53232e-008 -0.0122557 -0.00324396 0.000675133 -5.01789e-006 1.28801e-006 2.91446e-007 -3.22071e-006 7.34217e-007 -9.53232e-008 -9.09972e-009 -3.57991e-008 -1.00121e-007 -3.18431e-006 8.77413e-007 3.05161e-007 15.1267 10.5591 42.6336 45.4201 2.23162 -3.93999 48.5922 -47.0006 91.1304 62.5777 18.9507 -1.83984 3.29049e-006 -1.17782e-007 -2.12205e-007 3.24924e-006 -4.18933e-007 -7.33676e-007 3.29049e-006 -1.17782e-007 -2.12205e-007 3.29049e-006 -1.17782e-007 -2.12205e-007 0.0149722 -9.05671e-005 -6.83424e-008 3.2906e-006 -1.17811e-007 -2.12192e-007 3.29049e-006 -1.17782e-007 -2.12205e-007 0.0189873 -0.00119072 -5.99078e-005 3.29063e-006 -1.17825e-007 -2.1222e-007 3.29049e-006 -1.17782e-007 -2.12205e-007 0.0122878 -0.00325488 -0.000675357 3.29058e-006 -1.1781e-007 -2.12291e-007 3.29049e-006 -1.17782e-007 -2.12205e-007 3.24924e-006 -4.18933e-007 -7.33676e-007 3.29049e-006 -1.17782e-007 -2.12205e-007 -145.033 -80.1256 -150.784 2.09972 44.4366 -2.77066 -10.3557 9.00264 3.39341 4.28927e-008 3.27696e-008 -1.11743e-008 123.489 -74.6073 136.777 3.40853 31.1766 -0.779055 9.23593 -1.57151 -10.8078 1.14677e-007 -9.81928e-007 5.31556e-007 
-0.0632567 7.46861 50.6597 -180 -44 -180 0.62643 10.3848 0.110836 1.26406 20.7703 0.10666 1.26406 20.7703 0.10666 -1.74531e-005 17.9985 1.0923e-005 0.191875 -7.16162 -25.6293 -14.85 9.81664 -43.0371 -45.7172 2.22168 3.90552 -48.5966 -46.7688 -91.2393 -56.3944 14.3061 -0.459646 2.69539e-008 1.077e-007 3.00288e-007 7.18771e-008 2.87199e-007 8.00768e-007 8.98464e-009 3.58999e-008 1.00096e-007 2.69539e-008 1.077e-007 3.00288e-007 -0.0145971 -8.8462e-005 -2.54119e-007 8.98466e-009 3.58871e-008 1.00101e-007 2.69539e-008 1.077e-007 3.00288e-007 -0.0187353 -0.00117343 5.9975e-005 8.98557e-009 3.58835e-008 1.00102e-007 2.69539e-008 1.077e-007 3.00288e-007 -0.0122903 -0.00325367 0.000676059 8.98764e-009 3.58891e-008 1.001e-007 2.69539e-008 1.077e-007 3.00288e-007 7.18771e-008 2.87199e-007 8.00768e-007 8.98464e-009 3.58999e-008 1.00096e-007 14.8812 10.1605 42.6794 45.6728 2.23138 -3.93131 48.5883 -46.8423 91.1688 62.1411 19.0246 -1.60901 1.2921e-015 -1.59028e-015 3.97569e-016 1.78231e-006 4.2765e-007 -2.365e-007 -2.33572e-014 0 3.97569e-015 1.2921e-015 -1.59028e-015 3.97569e-016 0.0150168 -9.14829e-005 6.69696e-007 -8.10048e-015 -1.59028e-015 -0 1.2921e-015 -1.59028e-015 3.97569e-016 0.0190289 -0.00119204 -5.9668e-005 -7.95139e-015 -1.59028e-015 3.97569e-016 1.2921e-015 -1.59028e-015 3.97569e-016 0.0122769 -0.00325025 -0.000676593 -4.87022e-015 -1.59028e-015 -3.97569e-016 1.2921e-015 -1.59028e-015 3.97569e-016 1.78231e-006 4.2765e-007 -2.365e-007 -2.33572e-014 0 3.97569e-015 -144.365 -80.0996 -150.13 2.10865 44.7396 -2.79627 -10.3564 9.00001 3.39323 -1.65301e-009 2.6571e-008 1.75684e-009 123.044 -74.4385 136.351 3.40728 31.1643 -0.778532 9.23794 -1.56438 -10.8083 5.56597e-015 -6.36111e-015 4.77083e-015 
-0.0642485 7.46779 50.6585 -180 -44 -180 0.627873 10.4715 0.108281 1.26789 20.9435 0.100101 1.26789 20.9435 0.100101 -5.73106e-006 17.9986 -9.13444e-007 0.232073 -6.97362 -25.3241 -14.6079 9.43051 -43.0661 -45.9684 2.22198 3.89767 -48.5922 -46.6131 -91.2748 -56.1889 14.5491 -0.603486 -3.25549e-006 -2.41861e-007 -3.16606e-007 -1.97703e-008 7.4657e-007 -4.38102e-007 -3.25106e-006 -2.23861e-007 -2.66571e-007 -3.25549e-006 -2.41861e-007 -3.16606e-007 -0.0145971 -8.87557e-005 -3.06914e-007 -3.25121e-006 -2.23828e-007 -2.66597e-007 -3.25549e-006 -2.41861e-007 -3.16606e-007 -0.0187064 -0.00117142 5.84248e-005 -5.05444e-006 2.26144e-007 -2.78209e-007 -3.25549e-006 -2.41861e-007 -3.16606e-007 -0.0122564 -0.00324429 0.000674888 -3.25119e-006 -2.23846e-007 -2.66496e-007 -3.25549e-006 -2.41861e-007 -3.16606e-007 -1.97703e-008 7.4657e-007 -4.38102e-007 -3.25106e-006 -2.23861e-007 -2.66571e-007 14.6363 9.76159 42.7233 45.9257 2.2312 -3.9226 48.5843 -46.6839 91.2071 61.7039 19.0969 -1.37742 1.03368e-014 1.59028e-015 -3.97569e-016 4.17448e-015 0 7.95139e-016 7.40473e-015 -3.18055e-015 -3.97569e-016 1.03368e-014 1.59028e-015 -3.97569e-016 0.0149368 -9.06131e-005 -1.0683e-007 2.98177e-016 0 -1.59028e-015 1.03368e-014 1.59028e-015 -3.97569e-016 0.0189591 -0.0011879 -5.92475e-005 3.14031e-007 4.6742e-008 -7.3982e-008 1.03368e-014 1.59028e-015 -3.97569e-016 0.0123384 -0.00326685 -0.00067878 1.49089e-016 3.18055e-015 -0 1.03368e-014 1.59028e-015 -3.97569e-016 4.17448e-015 0 7.95139e-016 7.40473e-015 -3.18055e-015 -3.97569e-016 -143.7 -80.0724 -149.479 2.11775 45.0427 -2.82207 -10.3571 8.9974 3.39305 8.60231e-007 -1.05945e-007 -5.17989e-009 122.607 -74.2689 135.935 3.40602 31.1518 -0.778026 9.23997 -1.55722 -10.8089 -1.59922e-007 -1.6513e-006 2.26746e-007 
